<mxfile host="app.diagrams.net" modified="2023-10-12T08:29:53.871Z" agent="Mozilla/5.0 (Macintosh; Intel Mac OS X 10_15_7) AppleWebKit/537.36 (KHTML, like Gecko) Chrome/117.0.0.0 Safari/537.36" etag="MYC3D2QIva7MEurx5olY" version="22.0.4" type="device">
  <diagram id="C5RBs43oDa-KdzZeNtuy" name="Page-1">
    <mxGraphModel dx="1328" dy="2063" grid="1" gridSize="10" guides="1" tooltips="1" connect="1" arrows="1" fold="1" page="1" pageScale="1" pageWidth="827" pageHeight="1169" math="0" shadow="0">
      <root>
        <mxCell id="WIyWlLk6GJQsqaUBKTNV-0" />
        <mxCell id="WIyWlLk6GJQsqaUBKTNV-1" parent="WIyWlLk6GJQsqaUBKTNV-0" />
        <mxCell id="XzlZkJc71IZw_YHDA6VY-0" value="Library" style="swimlane;fontStyle=1;align=center;verticalAlign=top;childLayout=stackLayout;horizontal=1;startSize=26;horizontalStack=0;resizeParent=1;resizeParentMax=0;resizeLast=0;collapsible=1;marginBottom=0;whiteSpace=wrap;html=1;" vertex="1" parent="WIyWlLk6GJQsqaUBKTNV-1">
          <mxGeometry x="140" y="-120" width="210" height="400" as="geometry" />
        </mxCell>
        <mxCell id="XzlZkJc71IZw_YHDA6VY-1" value="- userList: ArrayList&amp;lt;User&amp;gt;&lt;br&gt;- bookInventory: HashSet&amp;lt;Book&amp;gt;&lt;br&gt;- availableBooks: HashSet&amp;lt;Book&amp;gt;&lt;br&gt;- fineList: Map&amp;lt;User, int&amp;gt;&lt;br&gt;- lostBooks: HashSet&amp;lt;Book&amp;gt;" style="text;strokeColor=none;fillColor=none;align=left;verticalAlign=top;spacingLeft=4;spacingRight=4;overflow=hidden;rotatable=0;points=[[0,0.5],[1,0.5]];portConstraint=eastwest;whiteSpace=wrap;html=1;" vertex="1" parent="XzlZkJc71IZw_YHDA6VY-0">
          <mxGeometry y="26" width="210" height="84" as="geometry" />
        </mxCell>
        <mxCell id="XzlZkJc71IZw_YHDA6VY-2" value="" style="line;strokeWidth=1;fillColor=none;align=left;verticalAlign=middle;spacingTop=-1;spacingLeft=3;spacingRight=3;rotatable=0;labelPosition=right;points=[];portConstraint=eastwest;strokeColor=inherit;" vertex="1" parent="XzlZkJc71IZw_YHDA6VY-0">
          <mxGeometry y="110" width="210" height="8" as="geometry" />
        </mxCell>
        <mxCell id="XzlZkJc71IZw_YHDA6VY-3" value="+ getInventory(): ArrayList&amp;lt;Book&amp;gt;&lt;br&gt;+ getAvailable(): ArrayList&amp;lt;Book&amp;gt;&lt;br&gt;+ addBook(Book): void&lt;br&gt;+ removeBook(Book): void&lt;br&gt;+ orderForDelivery(Book): void&lt;br&gt;+ orderForPickup(Book): void&lt;br&gt;+ searchByName(String): ArrayList&amp;lt;Book&amp;gt;&lt;br&gt;+ searchByISBN(int): book&lt;br&gt;+ searchByID(int): book&lt;br&gt;+ sortByName(String): ArrayList&amp;lt;Book&amp;gt;&lt;br&gt;+ sortByDate(Date): ArrayList&amp;lt;Book&amp;gt;&lt;br&gt;+ sortByGenre(Genre): ArrayList&amp;lt;Book&amp;gt;&lt;br&gt;+ sortByTopic(Topic): ArrayList&amp;lt;Book&amp;gt;&lt;br&gt;+ addFine(User, Int): int&lt;br&gt;+ payFine(User, Int): int" style="text;strokeColor=none;fillColor=none;align=left;verticalAlign=top;spacingLeft=4;spacingRight=4;overflow=hidden;rotatable=0;points=[[0,0.5],[1,0.5]];portConstraint=eastwest;whiteSpace=wrap;html=1;" vertex="1" parent="XzlZkJc71IZw_YHDA6VY-0">
          <mxGeometry y="118" width="210" height="282" as="geometry" />
        </mxCell>
        <mxCell id="XzlZkJc71IZw_YHDA6VY-4" value="&lt;p style=&quot;margin:0px;margin-top:4px;text-align:center;&quot;&gt;&lt;i&gt;&amp;lt;&amp;lt;Enumeration&amp;gt;&amp;gt;&lt;/i&gt;&lt;br&gt;&lt;b&gt;Genre&lt;/b&gt;&lt;/p&gt;&lt;hr size=&quot;1&quot;&gt;&lt;p style=&quot;margin:0px;margin-left:4px;&quot;&gt;Fantasy&lt;/p&gt;&lt;p style=&quot;margin:0px;margin-left:4px;&quot;&gt;Science Fiction&lt;/p&gt;&lt;p style=&quot;margin:0px;margin-left:4px;&quot;&gt;Action and Adventure&lt;/p&gt;&lt;p style=&quot;margin:0px;margin-left:4px;&quot;&gt;Mystery&lt;/p&gt;&lt;p style=&quot;margin:0px;margin-left:4px;&quot;&gt;Nonfiction&lt;/p&gt;&lt;p style=&quot;margin:0px;margin-left:4px;&quot;&gt;Graphic Novel&lt;/p&gt;&lt;p style=&quot;margin:0px;margin-left:4px;&quot;&gt;Romance&lt;/p&gt;&lt;p style=&quot;margin:0px;margin-left:4px;&quot;&gt;...&lt;/p&gt;" style="verticalAlign=top;align=left;overflow=fill;fontSize=12;fontFamily=Helvetica;html=1;whiteSpace=wrap;" vertex="1" parent="WIyWlLk6GJQsqaUBKTNV-1">
          <mxGeometry x="510" y="850" width="190" height="160" as="geometry" />
        </mxCell>
        <mxCell id="XzlZkJc71IZw_YHDA6VY-5" value="&lt;p style=&quot;margin:0px;margin-top:4px;text-align:center;&quot;&gt;&lt;i&gt;&amp;lt;&amp;lt;Enumeration&amp;gt;&amp;gt;&lt;/i&gt;&lt;br&gt;&lt;b&gt;Topic&lt;/b&gt;&lt;/p&gt;&lt;hr size=&quot;1&quot;&gt;&lt;p style=&quot;margin:0px;margin-left:4px;&quot;&gt;Politics&lt;/p&gt;&lt;p style=&quot;margin:0px;margin-left:4px;&quot;&gt;Love&lt;/p&gt;&lt;p style=&quot;margin:0px;margin-left:4px;&quot;&gt;War&lt;/p&gt;&lt;p style=&quot;margin:0px;margin-left:4px;&quot;&gt;Space&lt;/p&gt;&lt;p style=&quot;margin:0px;margin-left:4px;&quot;&gt;...&lt;/p&gt;&lt;p style=&quot;margin:0px;margin-left:4px;&quot;&gt;&lt;br&gt;&lt;/p&gt;" style="verticalAlign=top;align=left;overflow=fill;fontSize=12;fontFamily=Helvetica;html=1;whiteSpace=wrap;" vertex="1" parent="WIyWlLk6GJQsqaUBKTNV-1">
          <mxGeometry x="460" y="660" width="190" height="120" as="geometry" />
        </mxCell>
        <mxCell id="XzlZkJc71IZw_YHDA6VY-7" value="Book" style="swimlane;fontStyle=1;align=center;verticalAlign=top;childLayout=stackLayout;horizontal=1;startSize=26;horizontalStack=0;resizeParent=1;resizeParentMax=0;resizeLast=0;collapsible=1;marginBottom=0;whiteSpace=wrap;html=1;" vertex="1" parent="WIyWlLk6GJQsqaUBKTNV-1">
          <mxGeometry x="140" y="450" width="210" height="408" as="geometry" />
        </mxCell>
        <mxCell id="XzlZkJc71IZw_YHDA6VY-8" value="- name: String&lt;br&gt;- ISBN: int&lt;br&gt;- libraryID: int&lt;br&gt;- publishDate: Date&lt;br&gt;- author: Author&lt;br&gt;- reviews: ArrayList&amp;lt;Review&amp;gt;&lt;br&gt;- waitList: ArrayList&amp;lt;User&amp;gt;&lt;br&gt;- status: Status&lt;br&gt;- genre: Genre&lt;br&gt;- topic: ArrayList&amp;lt;Topic&amp;gt;&lt;br&gt;- content: File&lt;br&gt;- relevantDate: Date" style="text;strokeColor=none;fillColor=none;align=left;verticalAlign=top;spacingLeft=4;spacingRight=4;overflow=hidden;rotatable=0;points=[[0,0.5],[1,0.5]];portConstraint=eastwest;whiteSpace=wrap;html=1;" vertex="1" parent="XzlZkJc71IZw_YHDA6VY-7">
          <mxGeometry y="26" width="210" height="184" as="geometry" />
        </mxCell>
        <mxCell id="XzlZkJc71IZw_YHDA6VY-9" value="" style="line;strokeWidth=1;fillColor=none;align=left;verticalAlign=middle;spacingTop=-1;spacingLeft=3;spacingRight=3;rotatable=0;labelPosition=right;points=[];portConstraint=eastwest;strokeColor=inherit;" vertex="1" parent="XzlZkJc71IZw_YHDA6VY-7">
          <mxGeometry y="210" width="210" height="8" as="geometry" />
        </mxCell>
        <mxCell id="XzlZkJc71IZw_YHDA6VY-10" value="+ read(user): File&lt;br&gt;+ changeStatus(): status&lt;br&gt;+ getStatus(): status&lt;br&gt;+ changeStatus(Status): void&lt;br&gt;+ getName(): String&lt;br&gt;+ getISBN(): int&lt;br&gt;+ getDate(): Date&lt;br&gt;+ getAuthor(): Author&lt;br&gt;+ getReviews(): ArrayList&amp;lt;Review&amp;gt;&lt;br&gt;+ addReview(Review): void&lt;br&gt;+ toString(): String&lt;br&gt;+ getDate(): Date" style="text;strokeColor=none;fillColor=none;align=left;verticalAlign=top;spacingLeft=4;spacingRight=4;overflow=hidden;rotatable=0;points=[[0,0.5],[1,0.5]];portConstraint=eastwest;whiteSpace=wrap;html=1;" vertex="1" parent="XzlZkJc71IZw_YHDA6VY-7">
          <mxGeometry y="218" width="210" height="190" as="geometry" />
        </mxCell>
        <mxCell id="XzlZkJc71IZw_YHDA6VY-11" value="&lt;p style=&quot;margin:0px;margin-top:4px;text-align:center;&quot;&gt;&lt;i&gt;&amp;lt;&amp;lt;Enumeration&amp;gt;&amp;gt;&lt;/i&gt;&lt;br&gt;&lt;b&gt;Status&lt;/b&gt;&lt;/p&gt;&lt;hr size=&quot;1&quot;&gt;&lt;p style=&quot;margin:0px;margin-left:4px;&quot;&gt;Checked In&lt;/p&gt;&lt;p style=&quot;margin:0px;margin-left:4px;&quot;&gt;Checked out&lt;/p&gt;&lt;p style=&quot;margin:0px;margin-left:4px;&quot;&gt;Out for Delivery&lt;/p&gt;&lt;p style=&quot;margin:0px;margin-left:4px;&quot;&gt;Ready for Pickup&lt;/p&gt;&lt;p style=&quot;margin:0px;margin-left:4px;&quot;&gt;Lost&lt;/p&gt;&lt;p style=&quot;margin:0px;margin-left:4px;&quot;&gt;Being Delivered&lt;/p&gt;&lt;p style=&quot;margin:0px;margin-left:4px;&quot;&gt;Unavailable&lt;/p&gt;" style="verticalAlign=top;align=left;overflow=fill;fontSize=12;fontFamily=Helvetica;html=1;whiteSpace=wrap;" vertex="1" parent="WIyWlLk6GJQsqaUBKTNV-1">
          <mxGeometry x="140" y="960" width="190" height="150" as="geometry" />
        </mxCell>
        <mxCell id="XzlZkJc71IZw_YHDA6VY-12" value="Review" style="swimlane;fontStyle=1;align=center;verticalAlign=top;childLayout=stackLayout;horizontal=1;startSize=26;horizontalStack=0;resizeParent=1;resizeParentMax=0;resizeLast=0;collapsible=1;marginBottom=0;whiteSpace=wrap;html=1;" vertex="1" parent="WIyWlLk6GJQsqaUBKTNV-1">
          <mxGeometry x="450" y="360" width="190" height="170" as="geometry" />
        </mxCell>
        <mxCell id="XzlZkJc71IZw_YHDA6VY-13" value="- author: User&lt;br&gt;- rating: int&lt;br&gt;- comment: String&lt;br&gt;- likes: int" style="text;strokeColor=none;fillColor=none;align=left;verticalAlign=top;spacingLeft=4;spacingRight=4;overflow=hidden;rotatable=0;points=[[0,0.5],[1,0.5]];portConstraint=eastwest;whiteSpace=wrap;html=1;" vertex="1" parent="XzlZkJc71IZw_YHDA6VY-12">
          <mxGeometry y="26" width="190" height="64" as="geometry" />
        </mxCell>
        <mxCell id="XzlZkJc71IZw_YHDA6VY-14" value="" style="line;strokeWidth=1;fillColor=none;align=left;verticalAlign=middle;spacingTop=-1;spacingLeft=3;spacingRight=3;rotatable=0;labelPosition=right;points=[];portConstraint=eastwest;strokeColor=inherit;" vertex="1" parent="XzlZkJc71IZw_YHDA6VY-12">
          <mxGeometry y="90" width="190" height="8" as="geometry" />
        </mxCell>
        <mxCell id="XzlZkJc71IZw_YHDA6VY-15" value="+ getUser(): User&lt;br&gt;+ toString(): String&lt;br&gt;+ like(User): void&lt;br&gt;+ unlike(User): void" style="text;strokeColor=none;fillColor=none;align=left;verticalAlign=top;spacingLeft=4;spacingRight=4;overflow=hidden;rotatable=0;points=[[0,0.5],[1,0.5]];portConstraint=eastwest;whiteSpace=wrap;html=1;" vertex="1" parent="XzlZkJc71IZw_YHDA6VY-12">
          <mxGeometry y="98" width="190" height="72" as="geometry" />
        </mxCell>
        <mxCell id="XzlZkJc71IZw_YHDA6VY-17" value="User" style="swimlane;fontStyle=1;align=center;verticalAlign=top;childLayout=stackLayout;horizontal=1;startSize=26;horizontalStack=0;resizeParent=1;resizeParentMax=0;resizeLast=0;collapsible=1;marginBottom=0;whiteSpace=wrap;html=1;" vertex="1" parent="WIyWlLk6GJQsqaUBKTNV-1">
          <mxGeometry x="810" y="-80" width="230" height="560" as="geometry" />
        </mxCell>
        <mxCell id="XzlZkJc71IZw_YHDA6VY-18" value="- name: String&lt;br&gt;- userID: int&lt;br&gt;- password: String&lt;br&gt;- email: String&lt;br&gt;- favoriteBooks: ArrayList&amp;lt;Book&amp;gt;&lt;br&gt;- favoriteGenres: ArrayList&amp;lt;Genre&amp;gt;&lt;br&gt;- favoriteTopics: ArrayList&amp;lt;Topic&amp;gt;&lt;br&gt;- favoriteAuthors: ArrayList&amp;lt;Author&amp;gt;&lt;br&gt;- summary: String&lt;br&gt;- profilePicture: File&lt;br&gt;- debt: int&lt;br&gt;- currentBooks: ArrayList&amp;lt;Book&amp;gt;&lt;br&gt;- wishList: ArrayList&amp;lt;Book&amp;gt;&lt;br&gt;- reviews: ArrayList&amp;lt;Review&amp;gt;" style="text;strokeColor=none;fillColor=none;align=left;verticalAlign=top;spacingLeft=4;spacingRight=4;overflow=hidden;rotatable=0;points=[[0,0.5],[1,0.5]];portConstraint=eastwest;whiteSpace=wrap;html=1;" vertex="1" parent="XzlZkJc71IZw_YHDA6VY-17">
          <mxGeometry y="26" width="230" height="214" as="geometry" />
        </mxCell>
        <mxCell id="XzlZkJc71IZw_YHDA6VY-19" value="" style="line;strokeWidth=1;fillColor=none;align=left;verticalAlign=middle;spacingTop=-1;spacingLeft=3;spacingRight=3;rotatable=0;labelPosition=right;points=[];portConstraint=eastwest;strokeColor=inherit;" vertex="1" parent="XzlZkJc71IZw_YHDA6VY-17">
          <mxGeometry y="240" width="230" height="8" as="geometry" />
        </mxCell>
        <mxCell id="XzlZkJc71IZw_YHDA6VY-20" value="+ toString(): String&lt;br&gt;+ changePassword(String): void&lt;br&gt;+ changeName(String): void&lt;br&gt;+ addFavoriteBook(Book): void&lt;br&gt;+ removeFavoriteBook(Book): void&lt;br&gt;+ addFavoriteGenre(Genre): void&lt;br&gt;+ removeFavoriteGenre(Genre): void&lt;br&gt;+ addFavoriteTopic(Topic): void&lt;br&gt;+ removeFavoriteTopic(Topic): void&lt;br&gt;+ addFavoriteAuthor(Author): void&lt;br&gt;+ removeFavoriteAuthor(Author): void&lt;br&gt;+ editSummary(String): void&lt;br&gt;+ payDebt(int): int&lt;br&gt;+ waitlistBook(Book): void&lt;br&gt;+ checkoutBook(Book): void&lt;br&gt;+ returnBook(book): void&lt;br&gt;+ orderForDelivery(Book): void&lt;br&gt;+ orderForPickup(Book): void&lt;br&gt;+ getNotifiedWhenAvailable(Book): void&lt;br&gt;+ publishReview(Review): void&lt;br&gt;+ deleteReview(Review): void" style="text;strokeColor=none;fillColor=none;align=left;verticalAlign=top;spacingLeft=4;spacingRight=4;overflow=hidden;rotatable=0;points=[[0,0.5],[1,0.5]];portConstraint=eastwest;whiteSpace=wrap;html=1;" vertex="1" parent="XzlZkJc71IZw_YHDA6VY-17">
          <mxGeometry y="248" width="230" height="312" as="geometry" />
        </mxCell>
        <mxCell id="XzlZkJc71IZw_YHDA6VY-21" value="Author" style="swimlane;fontStyle=1;align=center;verticalAlign=top;childLayout=stackLayout;horizontal=1;startSize=26;horizontalStack=0;resizeParent=1;resizeParentMax=0;resizeLast=0;collapsible=1;marginBottom=0;whiteSpace=wrap;html=1;" vertex="1" parent="WIyWlLk6GJQsqaUBKTNV-1">
          <mxGeometry x="840" y="600" width="260" height="430" as="geometry" />
        </mxCell>
        <mxCell id="XzlZkJc71IZw_YHDA6VY-22" value="- name: String&lt;br&gt;- publishedBooks: ArrayList&amp;lt;Books&amp;gt;&lt;br&gt;- favoriteBooks: ArrayList&amp;lt;Books&amp;gt;&lt;br&gt;- favoriteAuthor: ArrayList&amp;lt;Author&amp;gt;&lt;br&gt;- favoriteGenres: ArrayList&amp;lt;Genre&amp;gt;&lt;br&gt;- favoriteTopics: ArrayList&amp;lt;Topic&amp;gt;&lt;br&gt;- publishedGenres: ArrayList&amp;lt;Genre&amp;gt;&lt;br&gt;- publishedTopics: ArrayList&amp;lt;Genre&amp;gt;&lt;br&gt;- summary: int&lt;br&gt;- profilePicture: File&lt;br&gt;- favoritedBy: ArrayList&amp;lt;User&amp;gt;" style="text;strokeColor=none;fillColor=none;align=left;verticalAlign=top;spacingLeft=4;spacingRight=4;overflow=hidden;rotatable=0;points=[[0,0.5],[1,0.5]];portConstraint=eastwest;whiteSpace=wrap;html=1;" vertex="1" parent="XzlZkJc71IZw_YHDA6VY-21">
          <mxGeometry y="26" width="260" height="164" as="geometry" />
        </mxCell>
        <mxCell id="XzlZkJc71IZw_YHDA6VY-23" value="" style="line;strokeWidth=1;fillColor=none;align=left;verticalAlign=middle;spacingTop=-1;spacingLeft=3;spacingRight=3;rotatable=0;labelPosition=right;points=[];portConstraint=eastwest;strokeColor=inherit;" vertex="1" parent="XzlZkJc71IZw_YHDA6VY-21">
          <mxGeometry y="190" width="260" height="8" as="geometry" />
        </mxCell>
        <mxCell id="XzlZkJc71IZw_YHDA6VY-24" value="+ toString(): String&lt;br&gt;+ addBook(Book): Book&lt;br&gt;+ addFavoriteBook(Book): void&lt;br style=&quot;border-color: var(--border-color);&quot;&gt;+ removeFavoriteBook(Book): void&lt;br style=&quot;border-color: var(--border-color);&quot;&gt;+ addFavoriteGenre(Genre): void&lt;br style=&quot;border-color: var(--border-color);&quot;&gt;+ removeFavoriteGenre(Genre): void&lt;br style=&quot;border-color: var(--border-color);&quot;&gt;+ addFavoriteTopic(Topic): void&lt;br style=&quot;border-color: var(--border-color);&quot;&gt;+ removeFavoriteTopic(Topic): void&lt;br style=&quot;border-color: var(--border-color);&quot;&gt;+ addFavoriteAuthor(Author): void&lt;br style=&quot;border-color: var(--border-color);&quot;&gt;+ removeFavoriteAuthor(Author): void&lt;br&gt;+ addPublishedGenre(Genre): void&lt;br&gt;+ addPublishedTopic(Genre): void&lt;br&gt;+ addLikes(User): void&lt;br&gt;+ addFavoritedUser(User): void&lt;br&gt;+ getFavoritedUsers(): ArrayList&amp;lt;User&amp;gt;" style="text;strokeColor=none;fillColor=none;align=left;verticalAlign=top;spacingLeft=4;spacingRight=4;overflow=hidden;rotatable=0;points=[[0,0.5],[1,0.5]];portConstraint=eastwest;whiteSpace=wrap;html=1;" vertex="1" parent="XzlZkJc71IZw_YHDA6VY-21">
          <mxGeometry y="198" width="260" height="232" as="geometry" />
        </mxCell>
        <mxCell id="XzlZkJc71IZw_YHDA6VY-60" value="" style="endArrow=diamondThin;endFill=0;endSize=24;html=1;rounded=0;entryX=0.495;entryY=1.004;entryDx=0;entryDy=0;entryPerimeter=0;exitX=0.5;exitY=0;exitDx=0;exitDy=0;" edge="1" parent="WIyWlLk6GJQsqaUBKTNV-1" source="XzlZkJc71IZw_YHDA6VY-7" target="XzlZkJc71IZw_YHDA6VY-3">
          <mxGeometry width="160" relative="1" as="geometry">
            <mxPoint x="220" y="330" as="sourcePoint" />
            <mxPoint x="380" y="330" as="targetPoint" />
          </mxGeometry>
        </mxCell>
        <mxCell id="XzlZkJc71IZw_YHDA6VY-61" value="1" style="edgeLabel;html=1;align=center;verticalAlign=middle;resizable=0;points=[];" vertex="1" connectable="0" parent="XzlZkJc71IZw_YHDA6VY-60">
          <mxGeometry x="0.5654" relative="1" as="geometry">
            <mxPoint as="offset" />
          </mxGeometry>
        </mxCell>
        <mxCell id="XzlZkJc71IZw_YHDA6VY-62" value="0...*" style="edgeLabel;html=1;align=center;verticalAlign=middle;resizable=0;points=[];" vertex="1" connectable="0" parent="XzlZkJc71IZw_YHDA6VY-60">
          <mxGeometry x="-0.8546" relative="1" as="geometry">
            <mxPoint as="offset" />
          </mxGeometry>
        </mxCell>
        <mxCell id="XzlZkJc71IZw_YHDA6VY-72" value="" style="endArrow=diamondThin;endFill=0;endSize=24;html=1;rounded=0;entryX=1;entryY=0;entryDx=0;entryDy=0;exitX=-0.016;exitY=1.016;exitDx=0;exitDy=0;exitPerimeter=0;" edge="1" parent="WIyWlLk6GJQsqaUBKTNV-1" source="XzlZkJc71IZw_YHDA6VY-13" target="XzlZkJc71IZw_YHDA6VY-7">
          <mxGeometry width="160" relative="1" as="geometry">
            <mxPoint x="415" y="969" as="sourcePoint" />
            <mxPoint x="414" y="800" as="targetPoint" />
          </mxGeometry>
        </mxCell>
        <mxCell id="XzlZkJc71IZw_YHDA6VY-73" value="1" style="edgeLabel;html=1;align=center;verticalAlign=middle;resizable=0;points=[];" vertex="1" connectable="0" parent="XzlZkJc71IZw_YHDA6VY-72">
          <mxGeometry x="0.5654" relative="1" as="geometry">
            <mxPoint as="offset" />
          </mxGeometry>
        </mxCell>
        <mxCell id="XzlZkJc71IZw_YHDA6VY-74" value="0...*" style="edgeLabel;html=1;align=center;verticalAlign=middle;resizable=0;points=[];" vertex="1" connectable="0" parent="XzlZkJc71IZw_YHDA6VY-72">
          <mxGeometry x="-0.8546" relative="1" as="geometry">
            <mxPoint as="offset" />
          </mxGeometry>
        </mxCell>
        <mxCell id="XzlZkJc71IZw_YHDA6VY-75" value="" style="endArrow=diamondThin;endFill=1;endSize=24;html=1;rounded=0;entryX=0.462;entryY=1.021;entryDx=0;entryDy=0;entryPerimeter=0;exitX=0.5;exitY=0;exitDx=0;exitDy=0;" edge="1" parent="WIyWlLk6GJQsqaUBKTNV-1" source="XzlZkJc71IZw_YHDA6VY-11" target="XzlZkJc71IZw_YHDA6VY-10">
          <mxGeometry width="160" relative="1" as="geometry">
            <mxPoint x="300" y="970" as="sourcePoint" />
            <mxPoint x="460" y="970" as="targetPoint" />
          </mxGeometry>
        </mxCell>
        <mxCell id="XzlZkJc71IZw_YHDA6VY-76" value="1" style="edgeLabel;html=1;align=center;verticalAlign=middle;resizable=0;points=[];" vertex="1" connectable="0" parent="XzlZkJc71IZw_YHDA6VY-75">
          <mxGeometry x="0.2859" y="-1" relative="1" as="geometry">
            <mxPoint as="offset" />
          </mxGeometry>
        </mxCell>
        <mxCell id="XzlZkJc71IZw_YHDA6VY-77" value="1" style="edgeLabel;html=1;align=center;verticalAlign=middle;resizable=0;points=[];" vertex="1" connectable="0" parent="XzlZkJc71IZw_YHDA6VY-75">
          <mxGeometry x="-0.6328" relative="1" as="geometry">
            <mxPoint as="offset" />
          </mxGeometry>
        </mxCell>
        <mxCell id="XzlZkJc71IZw_YHDA6VY-78" value="" style="endArrow=diamondThin;endFill=1;endSize=24;html=1;rounded=0;exitX=0;exitY=0.5;exitDx=0;exitDy=0;entryX=1.01;entryY=0.995;entryDx=0;entryDy=0;entryPerimeter=0;" edge="1" parent="WIyWlLk6GJQsqaUBKTNV-1" source="XzlZkJc71IZw_YHDA6VY-4" target="XzlZkJc71IZw_YHDA6VY-10">
          <mxGeometry width="160" relative="1" as="geometry">
            <mxPoint x="370" y="450" as="sourcePoint" />
            <mxPoint x="390" y="450" as="targetPoint" />
          </mxGeometry>
        </mxCell>
        <mxCell id="XzlZkJc71IZw_YHDA6VY-79" value="1" style="edgeLabel;html=1;align=center;verticalAlign=middle;resizable=0;points=[];" vertex="1" connectable="0" parent="XzlZkJc71IZw_YHDA6VY-78">
          <mxGeometry x="0.5626" relative="1" as="geometry">
            <mxPoint as="offset" />
          </mxGeometry>
        </mxCell>
        <mxCell id="XzlZkJc71IZw_YHDA6VY-80" value="1...*" style="edgeLabel;html=1;align=center;verticalAlign=middle;resizable=0;points=[];" vertex="1" connectable="0" parent="XzlZkJc71IZw_YHDA6VY-78">
          <mxGeometry x="-0.8081" y="-1" relative="1" as="geometry">
            <mxPoint y="1" as="offset" />
          </mxGeometry>
        </mxCell>
        <mxCell id="XzlZkJc71IZw_YHDA6VY-81" value="" style="endArrow=diamondThin;endFill=1;endSize=24;html=1;rounded=0;exitX=0;exitY=0.5;exitDx=0;exitDy=0;entryX=1;entryY=0.253;entryDx=0;entryDy=0;entryPerimeter=0;" edge="1" parent="WIyWlLk6GJQsqaUBKTNV-1" source="XzlZkJc71IZw_YHDA6VY-5" target="XzlZkJc71IZw_YHDA6VY-10">
          <mxGeometry width="160" relative="1" as="geometry">
            <mxPoint x="510" y="390" as="sourcePoint" />
            <mxPoint x="390" y="540" as="targetPoint" />
          </mxGeometry>
        </mxCell>
        <mxCell id="XzlZkJc71IZw_YHDA6VY-82" value="1" style="edgeLabel;html=1;align=center;verticalAlign=middle;resizable=0;points=[];" vertex="1" connectable="0" parent="XzlZkJc71IZw_YHDA6VY-81">
          <mxGeometry x="0.5626" relative="1" as="geometry">
            <mxPoint as="offset" />
          </mxGeometry>
        </mxCell>
        <mxCell id="XzlZkJc71IZw_YHDA6VY-83" value="1...*" style="edgeLabel;html=1;align=center;verticalAlign=middle;resizable=0;points=[];" vertex="1" connectable="0" parent="XzlZkJc71IZw_YHDA6VY-81">
          <mxGeometry x="-0.8081" y="-1" relative="1" as="geometry">
            <mxPoint y="1" as="offset" />
          </mxGeometry>
        </mxCell>
        <mxCell id="XzlZkJc71IZw_YHDA6VY-84" value="" style="endArrow=diamondThin;endFill=0;endSize=24;html=1;rounded=0;exitX=1.011;exitY=-0.056;exitDx=0;exitDy=0;entryX=0.004;entryY=0.917;entryDx=0;entryDy=0;entryPerimeter=0;exitPerimeter=0;" edge="1" parent="WIyWlLk6GJQsqaUBKTNV-1" source="XzlZkJc71IZw_YHDA6VY-15" target="XzlZkJc71IZw_YHDA6VY-20">
          <mxGeometry width="160" relative="1" as="geometry">
            <mxPoint x="834" y="546" as="sourcePoint" />
            <mxPoint x="730" y="590" as="targetPoint" />
          </mxGeometry>
        </mxCell>
        <mxCell id="XzlZkJc71IZw_YHDA6VY-85" value="1" style="edgeLabel;html=1;align=center;verticalAlign=middle;resizable=0;points=[];" vertex="1" connectable="0" parent="XzlZkJc71IZw_YHDA6VY-84">
          <mxGeometry x="0.5654" relative="1" as="geometry">
            <mxPoint as="offset" />
          </mxGeometry>
        </mxCell>
        <mxCell id="XzlZkJc71IZw_YHDA6VY-86" value="0...*" style="edgeLabel;html=1;align=center;verticalAlign=middle;resizable=0;points=[];" vertex="1" connectable="0" parent="XzlZkJc71IZw_YHDA6VY-84">
          <mxGeometry x="-0.8546" relative="1" as="geometry">
            <mxPoint as="offset" />
          </mxGeometry>
        </mxCell>
        <mxCell id="XzlZkJc71IZw_YHDA6VY-87" value="" style="endArrow=diamondThin;endFill=0;endSize=24;html=1;rounded=0;exitX=0.716;exitY=-0.012;exitDx=0;exitDy=0;exitPerimeter=0;" edge="1" parent="WIyWlLk6GJQsqaUBKTNV-1" source="XzlZkJc71IZw_YHDA6VY-4" target="XzlZkJc71IZw_YHDA6VY-20">
          <mxGeometry width="160" relative="1" as="geometry">
            <mxPoint x="650" y="760" as="sourcePoint" />
            <mxPoint x="819" y="760" as="targetPoint" />
          </mxGeometry>
        </mxCell>
        <mxCell id="XzlZkJc71IZw_YHDA6VY-88" value="1" style="edgeLabel;html=1;align=center;verticalAlign=middle;resizable=0;points=[];" vertex="1" connectable="0" parent="XzlZkJc71IZw_YHDA6VY-87">
          <mxGeometry x="0.5654" relative="1" as="geometry">
            <mxPoint as="offset" />
          </mxGeometry>
        </mxCell>
        <mxCell id="XzlZkJc71IZw_YHDA6VY-89" value="0...*" style="edgeLabel;html=1;align=center;verticalAlign=middle;resizable=0;points=[];" vertex="1" connectable="0" parent="XzlZkJc71IZw_YHDA6VY-87">
          <mxGeometry x="-0.8546" relative="1" as="geometry">
            <mxPoint as="offset" />
          </mxGeometry>
        </mxCell>
        <mxCell id="XzlZkJc71IZw_YHDA6VY-90" value="" style="endArrow=diamondThin;endFill=0;endSize=24;html=1;rounded=0;exitX=1;exitY=0;exitDx=0;exitDy=0;entryX=-0.017;entryY=1.01;entryDx=0;entryDy=0;entryPerimeter=0;" edge="1" parent="WIyWlLk6GJQsqaUBKTNV-1" source="XzlZkJc71IZw_YHDA6VY-5" target="XzlZkJc71IZw_YHDA6VY-20">
          <mxGeometry width="160" relative="1" as="geometry">
            <mxPoint x="640" y="620" as="sourcePoint" />
            <mxPoint x="809" y="620" as="targetPoint" />
          </mxGeometry>
        </mxCell>
        <mxCell id="XzlZkJc71IZw_YHDA6VY-91" value="1" style="edgeLabel;html=1;align=center;verticalAlign=middle;resizable=0;points=[];" vertex="1" connectable="0" parent="XzlZkJc71IZw_YHDA6VY-90">
          <mxGeometry x="0.5654" relative="1" as="geometry">
            <mxPoint as="offset" />
          </mxGeometry>
        </mxCell>
        <mxCell id="XzlZkJc71IZw_YHDA6VY-92" value="0...*" style="edgeLabel;html=1;align=center;verticalAlign=middle;resizable=0;points=[];" vertex="1" connectable="0" parent="XzlZkJc71IZw_YHDA6VY-90">
          <mxGeometry x="-0.8546" relative="1" as="geometry">
            <mxPoint as="offset" />
          </mxGeometry>
        </mxCell>
        <mxCell id="XzlZkJc71IZw_YHDA6VY-93" value="" style="endArrow=diamondThin;endFill=0;endSize=24;html=1;rounded=0;exitX=1.011;exitY=0.433;exitDx=0;exitDy=0;entryX=0;entryY=0.5;entryDx=0;entryDy=0;exitPerimeter=0;" edge="1" parent="WIyWlLk6GJQsqaUBKTNV-1" source="XzlZkJc71IZw_YHDA6VY-5" target="XzlZkJc71IZw_YHDA6VY-22">
          <mxGeometry width="160" relative="1" as="geometry">
            <mxPoint x="660" y="670" as="sourcePoint" />
            <mxPoint x="816" y="493" as="targetPoint" />
          </mxGeometry>
        </mxCell>
        <mxCell id="XzlZkJc71IZw_YHDA6VY-94" value="1" style="edgeLabel;html=1;align=center;verticalAlign=middle;resizable=0;points=[];" vertex="1" connectable="0" parent="XzlZkJc71IZw_YHDA6VY-93">
          <mxGeometry x="0.5654" relative="1" as="geometry">
            <mxPoint as="offset" />
          </mxGeometry>
        </mxCell>
        <mxCell id="XzlZkJc71IZw_YHDA6VY-95" value="0...*" style="edgeLabel;html=1;align=center;verticalAlign=middle;resizable=0;points=[];" vertex="1" connectable="0" parent="XzlZkJc71IZw_YHDA6VY-93">
          <mxGeometry x="-0.8546" relative="1" as="geometry">
            <mxPoint as="offset" />
          </mxGeometry>
        </mxCell>
        <mxCell id="XzlZkJc71IZw_YHDA6VY-96" value="" style="endArrow=diamondThin;endFill=0;endSize=24;html=1;rounded=0;exitX=1;exitY=0.5;exitDx=0;exitDy=0;entryX=0.004;entryY=0.565;entryDx=0;entryDy=0;entryPerimeter=0;" edge="1" parent="WIyWlLk6GJQsqaUBKTNV-1" source="XzlZkJc71IZw_YHDA6VY-4" target="XzlZkJc71IZw_YHDA6VY-24">
          <mxGeometry width="160" relative="1" as="geometry">
            <mxPoint x="684" y="957" as="sourcePoint" />
            <mxPoint x="840" y="780" as="targetPoint" />
          </mxGeometry>
        </mxCell>
        <mxCell id="XzlZkJc71IZw_YHDA6VY-97" value="1" style="edgeLabel;html=1;align=center;verticalAlign=middle;resizable=0;points=[];" vertex="1" connectable="0" parent="XzlZkJc71IZw_YHDA6VY-96">
          <mxGeometry x="0.5654" relative="1" as="geometry">
            <mxPoint as="offset" />
          </mxGeometry>
        </mxCell>
        <mxCell id="XzlZkJc71IZw_YHDA6VY-98" value="0...*" style="edgeLabel;html=1;align=center;verticalAlign=middle;resizable=0;points=[];" vertex="1" connectable="0" parent="XzlZkJc71IZw_YHDA6VY-96">
          <mxGeometry x="-0.8546" relative="1" as="geometry">
            <mxPoint as="offset" />
          </mxGeometry>
        </mxCell>
        <mxCell id="XzlZkJc71IZw_YHDA6VY-99" value="" style="endArrow=diamondThin;endFill=0;endSize=24;html=1;rounded=0;exitX=-0.022;exitY=0.636;exitDx=0;exitDy=0;entryX=1.01;entryY=0.294;entryDx=0;entryDy=0;entryPerimeter=0;exitPerimeter=0;" edge="1" parent="WIyWlLk6GJQsqaUBKTNV-1" source="XzlZkJc71IZw_YHDA6VY-18" target="XzlZkJc71IZw_YHDA6VY-3">
          <mxGeometry width="160" relative="1" as="geometry">
            <mxPoint x="484" y="237" as="sourcePoint" />
            <mxPoint x="640" y="60" as="targetPoint" />
          </mxGeometry>
        </mxCell>
        <mxCell id="XzlZkJc71IZw_YHDA6VY-100" value="1" style="edgeLabel;html=1;align=center;verticalAlign=middle;resizable=0;points=[];" vertex="1" connectable="0" parent="XzlZkJc71IZw_YHDA6VY-99">
          <mxGeometry x="0.5654" relative="1" as="geometry">
            <mxPoint as="offset" />
          </mxGeometry>
        </mxCell>
        <mxCell id="XzlZkJc71IZw_YHDA6VY-101" value="0...*" style="edgeLabel;html=1;align=center;verticalAlign=middle;resizable=0;points=[];" vertex="1" connectable="0" parent="XzlZkJc71IZw_YHDA6VY-99">
          <mxGeometry x="-0.8546" relative="1" as="geometry">
            <mxPoint as="offset" />
          </mxGeometry>
        </mxCell>
      </root>
    </mxGraphModel>
  </diagram>
</mxfile>
